<svg xmlns="http://www.w3.org/2000/svg" xmlns:xlink="http://www.w3.org/1999/xlink" width="500" zoomAndPan="magnify" viewBox="0 0 375 374.999991" height="500" preserveAspectRatio="xMidYMid meet" version="1.0"><defs><clipPath id="f061176a83"><path d="M 1.65625 46.027344 L 373.65625 46.027344 L 373.65625 328.777344 L 1.65625 328.777344 Z M 1.65625 46.027344 " clip-rule="nonzero"/></clipPath></defs><g clip-path="url(#f061176a83)"><path fill="#2196f3" d="M 37.21875 46.027344 L 338.097656 46.027344 C 357.652344 46.027344 373.492188 61.851562 373.492188 81.371094 L 373.492188 293.433594 C 373.492188 312.953125 357.652344 328.777344 338.097656 328.777344 L 37.21875 328.777344 C 17.671875 328.777344 1.820312 312.953125 1.820312 293.433594 L 1.820312 81.371094 C 1.820312 61.851562 17.671875 46.027344 37.21875 46.027344 " fill-opacity="1" fill-rule="nonzero"/></g><path fill="#ffffff" d="M 126.046875 229.152344 L 88.066406 229.152344 L 80.660156 258.089844 L 51.210938 258.089844 L 94.304688 116.714844 L 119.792969 116.714844 L 163.179688 258.089844 L 133.4375 258.089844 Z M 94.128906 205.367188 L 119.898438 205.367188 L 107.015625 154.972656 Z M 205.355469 208.378906 L 205.355469 258.089844 L 178.808594 258.089844 L 178.808594 116.714844 L 223.054688 116.714844 C 236.699219 116.714844 247.578125 121.054688 255.699219 129.730469 C 263.804688 138.398438 267.300781 149.664062 267.300781 163.519531 C 267.300781 177.375 263.851562 188.3125 255.839844 196.335938 C 247.816406 204.359375 236.699219 208.378906 222.496094 208.378906 Z M 205.355469 184.582031 L 224.082031 184.582031 C 229.382812 184.582031 233.488281 182.808594 236.410156 179.246094 C 239.300781 175.6875 240.753906 170.507812 240.753906 163.714844 C 240.753906 156.652344 239.277344 151.042969 236.300781 146.863281 C 233.335938 142.691406 229.355469 140.570312 224.363281 140.5 L 205.355469 140.5 Z M 311.546875 258.089844 L 285 258.089844 L 285 116.714844 L 311.546875 116.714844 Z M 311.546875 258.089844 " fill-opacity="1" fill-rule="nonzero"/></svg>